<svg width="261" height="38" viewBox="0 0 261 38" fill="none" xmlns="http://www.w3.org/2000/svg">
<path fill-rule="evenodd" clip-rule="evenodd" d="M5.919 29.8541L7.85558 26.5098L10.6482 28.1173L8.71162 31.4616L5.919 29.8541ZM11.2178 27.1339L8.42517 25.5264L10.3618 22.1823L13.1544 23.7898L11.2178 27.1339ZM13.724 22.8059L10.9313 21.1984L12.8679 17.8541L15.6606 19.4616L13.724 22.8059ZM16.2302 18.4782L13.4375 16.8707L15.3741 13.5264L18.1667 15.1339L16.2302 18.4782ZM18.7361 14.1503L15.9435 12.5428L17.8801 9.19873L20.6727 10.8062L18.7361 14.1503ZM21.2425 9.82262L18.4499 8.21512L20.3865 4.87081L23.1791 6.47831L21.2425 9.82262ZM23.6785 5.61598L20.8858 4.00848L22.1828 1.76885L20.8472 1L0 37H1.78086L2.84322 35.1654L5.63585 36.7729L5.5045 37H22.6923C21.9973 32.0974 20.4141 28.3314 17.9429 25.7022C20.265 29.4077 21.5036 32.8965 21.6582 36.1686C17.1341 35.4493 15.0893 32.3857 15.524 26.9776C15.6917 25.3289 15.4228 23.9718 14.7178 22.9064C23.196 23.8021 26.0587 27.9373 23.3053 35.3124L23.6646 37H24.6725C30.8758 30.8478 34.6614 23.8898 36.0293 16.1264C33.8006 23.1914 30.3304 29.0856 25.619 33.8091C26.7284 29.4754 25.7588 26.1439 22.7097 23.8145C24.8117 16.1367 33.9933 13.8324 35.45 9.40545L24.9756 3.37635L23.6785 5.61598ZM6.20545 35.7893L3.41282 34.1818L5.3494 30.8375L8.14202 32.445L6.20545 35.7893ZM41.237 28.4136L44.0296 30.0211L42.093 33.3654L39.3004 31.7579L41.237 28.4136ZM44.5992 29.0374L41.8066 27.4299L43.7432 24.0856L46.5358 25.6931L44.5992 29.0374ZM38.7308 32.7413L41.5234 34.3488L39.9881 36.9998H41.769L52.1739 19.0319L50.8381 18.2631L49.5411 20.5029L46.7485 18.8954L48.0455 16.6558L37.5904 10.6378C44.7789 20.6855 41.3768 35.0021 28.0723 36.0108L27.2135 37H36.2645H38.3824L36.7938 36.0856L38.7308 32.7413ZM47.1054 24.7097L44.3128 23.1022L46.2493 19.7579L49.042 21.3654L47.1054 24.7097Z" fill="#73729A"/>
<path d="M76.2738 29.42C75.0938 29.42 73.9838 29.13 72.9438 28.55C71.9238 27.95 71.1038 27.08 70.4838 25.94C69.8638 24.8 69.5538 23.42 69.5538 21.8V21.32C69.5538 19.7 69.8638 18.32 70.4838 17.18C71.1038 16.04 71.9238 15.18 72.9438 14.6C73.9638 14 75.0738 13.7 76.2738 13.7C77.1738 13.7 77.9238 13.81 78.5238 14.03C79.1438 14.23 79.6438 14.49 80.0238 14.81C80.4038 15.13 80.6938 15.47 80.8938 15.83H81.4338V8H85.2138V29H81.4938V27.2H80.9538C80.6138 27.76 80.0838 28.27 79.3638 28.73C78.6638 29.19 77.6338 29.42 76.2738 29.42ZM77.4138 26.12C78.5738 26.12 79.5438 25.75 80.3238 25.01C81.1038 24.25 81.4938 23.15 81.4938 21.71V21.41C81.4938 19.97 81.1038 18.88 80.3238 18.14C79.5638 17.38 78.5938 17 77.4138 17C76.2538 17 75.2838 17.38 74.5038 18.14C73.7238 18.88 73.3338 19.97 73.3338 21.41V21.71C73.3338 23.15 73.7238 24.25 74.5038 25.01C75.2838 25.75 76.2538 26.12 77.4138 26.12ZM89.4047 29V14.12H93.1247V15.8H93.6647C93.8847 15.2 94.2447 14.76 94.7447 14.48C95.2647 14.2 95.8647 14.06 96.5447 14.06H98.3447V17.42H96.4847C95.5247 17.42 94.7347 17.68 94.1147 18.2C93.4947 18.7 93.1847 19.48 93.1847 20.54V29H89.4047ZM107.552 29.42C106.072 29.42 104.762 29.11 103.622 28.49C102.502 27.85 101.622 26.96 100.982 25.82C100.362 24.66 100.052 23.3 100.052 21.74V21.38C100.052 19.82 100.362 18.47 100.982 17.33C101.602 16.17 102.472 15.28 103.592 14.66C104.712 14.02 106.012 13.7 107.492 13.7C108.952 13.7 110.222 14.03 111.302 14.69C112.382 15.33 113.222 16.23 113.822 17.39C114.422 18.53 114.722 19.86 114.722 21.38V22.67H103.892C103.932 23.69 104.312 24.52 105.032 25.16C105.752 25.8 106.632 26.12 107.672 26.12C108.732 26.12 109.512 25.89 110.012 25.43C110.512 24.97 110.892 24.46 111.152 23.9L114.242 25.52C113.962 26.04 113.552 26.61 113.012 27.23C112.492 27.83 111.792 28.35 110.912 28.79C110.032 29.21 108.912 29.42 107.552 29.42ZM103.922 19.85H110.882C110.802 18.99 110.452 18.3 109.832 17.78C109.232 17.26 108.442 17 107.462 17C106.442 17 105.632 17.26 105.032 17.78C104.432 18.3 104.062 18.99 103.922 19.85ZM122.706 29.42C121.646 29.42 120.696 29.24 119.856 28.88C119.016 28.5 118.346 27.96 117.846 27.26C117.366 26.54 117.126 25.67 117.126 24.65C117.126 23.63 117.366 22.78 117.846 22.1C118.346 21.4 119.026 20.88 119.886 20.54C120.766 20.18 121.766 20 122.886 20H126.966V19.16C126.966 18.46 126.746 17.89 126.306 17.45C125.866 16.99 125.166 16.76 124.206 16.76C123.266 16.76 122.566 16.98 122.106 17.42C121.646 17.84 121.346 18.39 121.206 19.07L117.726 17.9C117.966 17.14 118.346 16.45 118.866 15.83C119.406 15.19 120.116 14.68 120.996 14.3C121.896 13.9 122.986 13.7 124.266 13.7C126.226 13.7 127.776 14.19 128.916 15.17C130.056 16.15 130.626 17.57 130.626 19.43V24.98C130.626 25.58 130.906 25.88 131.466 25.88H132.666V29H130.146C129.406 29 128.796 28.82 128.316 28.46C127.836 28.1 127.596 27.62 127.596 27.02V26.99H127.026C126.946 27.23 126.766 27.55 126.486 27.95C126.206 28.33 125.766 28.67 125.166 28.97C124.566 29.27 123.746 29.42 122.706 29.42ZM123.366 26.36C124.426 26.36 125.286 26.07 125.946 25.49C126.626 24.89 126.966 24.1 126.966 23.12V22.82H123.156C122.456 22.82 121.906 22.97 121.506 23.27C121.106 23.57 120.906 23.99 120.906 24.53C120.906 25.07 121.116 25.51 121.536 25.85C121.956 26.19 122.566 26.36 123.366 26.36ZM135.43 29V14.12H139.15V15.74H139.69C139.95 15.24 140.38 14.81 140.98 14.45C141.58 14.07 142.37 13.88 143.35 13.88C144.41 13.88 145.26 14.09 145.9 14.51C146.54 14.91 147.03 15.44 147.37 16.1H147.91C148.25 15.46 148.73 14.93 149.35 14.51C149.97 14.09 150.85 13.88 151.99 13.88C152.91 13.88 153.74 14.08 154.48 14.48C155.24 14.86 155.84 15.45 156.28 16.25C156.74 17.03 156.97 18.02 156.97 19.22V29H153.19V19.49C153.19 18.67 152.98 18.06 152.56 17.66C152.14 17.24 151.55 17.03 150.79 17.03C149.93 17.03 149.26 17.31 148.78 17.87C148.32 18.41 148.09 19.19 148.09 20.21V29H144.31V19.49C144.31 18.67 144.1 18.06 143.68 17.66C143.26 17.24 142.67 17.03 141.91 17.03C141.05 17.03 140.38 17.31 139.9 17.87C139.44 18.41 139.21 19.19 139.21 20.21V29H135.43ZM162.421 35V31.7H170.521C171.081 31.7 171.361 31.4 171.361 30.8V27.05H170.821C170.661 27.39 170.411 27.73 170.071 28.07C169.731 28.41 169.271 28.69 168.691 28.91C168.111 29.13 167.371 29.24 166.471 29.24C165.311 29.24 164.291 28.98 163.411 28.46C162.551 27.92 161.881 27.18 161.401 26.24C160.921 25.3 160.681 24.22 160.681 23V14.12H164.461V22.7C164.461 23.82 164.731 24.66 165.271 25.22C165.831 25.78 166.621 26.06 167.641 26.06C168.801 26.06 169.701 25.68 170.341 24.92C170.981 24.14 171.301 23.06 171.301 21.68V14.12H175.081V31.64C175.081 32.66 174.781 33.47 174.181 34.07C173.581 34.69 172.781 35 171.781 35H162.421ZM181.748 29V17.24H177.968V14.12H181.748V11.36C181.748 10.34 182.048 9.53 182.648 8.93C183.268 8.31 184.068 8 185.048 8H188.948V11.12H186.368C185.808 11.12 185.528 11.42 185.528 12.02V14.12H189.428V17.24H185.528V29H181.748ZM198.936 29.42C197.456 29.42 196.126 29.12 194.946 28.52C193.766 27.92 192.836 27.05 192.156 25.91C191.476 24.77 191.136 23.4 191.136 21.8V21.32C191.136 19.72 191.476 18.35 192.156 17.21C192.836 16.07 193.766 15.2 194.946 14.6C196.126 14 197.456 13.7 198.936 13.7C200.416 13.7 201.746 14 202.926 14.6C204.106 15.2 205.036 16.07 205.716 17.21C206.396 18.35 206.736 19.72 206.736 21.32V21.8C206.736 23.4 206.396 24.77 205.716 25.91C205.036 27.05 204.106 27.92 202.926 28.52C201.746 29.12 200.416 29.42 198.936 29.42ZM198.936 26.06C200.096 26.06 201.056 25.69 201.816 24.95C202.576 24.19 202.956 23.11 202.956 21.71V21.41C202.956 20.01 202.576 18.94 201.816 18.2C201.076 17.44 200.116 17.06 198.936 17.06C197.776 17.06 196.816 17.44 196.056 18.2C195.296 18.94 194.916 20.01 194.916 21.41V21.71C194.916 23.11 195.296 24.19 196.056 24.95C196.816 25.69 197.776 26.06 198.936 26.06ZM217.215 29.42C215.775 29.42 214.465 29.12 213.285 28.52C212.125 27.92 211.205 27.05 210.525 25.91C209.845 24.77 209.505 23.39 209.505 21.77V21.35C209.505 19.73 209.845 18.35 210.525 17.21C211.205 16.07 212.125 15.2 213.285 14.6C214.465 14 215.775 13.7 217.215 13.7C218.635 13.7 219.855 13.95 220.875 14.45C221.895 14.95 222.715 15.64 223.335 16.52C223.975 17.38 224.395 18.36 224.595 19.46L220.935 20.24C220.855 19.64 220.675 19.1 220.395 18.62C220.115 18.14 219.715 17.76 219.195 17.48C218.695 17.2 218.065 17.06 217.305 17.06C216.545 17.06 215.855 17.23 215.235 17.57C214.635 17.89 214.155 18.38 213.795 19.04C213.455 19.68 213.285 20.47 213.285 21.41V21.71C213.285 22.65 213.455 23.45 213.795 24.11C214.155 24.75 214.635 25.24 215.235 25.58C215.855 25.9 216.545 26.06 217.305 26.06C218.445 26.06 219.305 25.77 219.885 25.19C220.485 24.59 220.865 23.81 221.025 22.85L224.685 23.72C224.425 24.78 223.975 25.75 223.335 26.63C222.715 27.49 221.895 28.17 220.875 28.67C219.855 29.17 218.635 29.42 217.215 29.42ZM233.473 29.24C232.313 29.24 231.293 28.98 230.413 28.46C229.553 27.92 228.883 27.18 228.403 26.24C227.923 25.3 227.683 24.22 227.683 23V14.12H231.463V22.7C231.463 23.82 231.733 24.66 232.273 25.22C232.833 25.78 233.623 26.06 234.643 26.06C235.803 26.06 236.703 25.68 237.343 24.92C237.983 24.14 238.303 23.06 238.303 21.68V14.12H242.083V29H238.363V27.05H237.823C237.583 27.55 237.133 28.04 236.473 28.52C235.813 29 234.813 29.24 233.473 29.24ZM252.469 29.42C250.529 29.42 248.939 29 247.699 28.16C246.459 27.32 245.709 26.12 245.449 24.56L248.929 23.66C249.069 24.36 249.299 24.91 249.619 25.31C249.959 25.71 250.369 26 250.849 26.18C251.349 26.34 251.889 26.42 252.469 26.42C253.349 26.42 253.999 26.27 254.419 25.97C254.839 25.65 255.049 25.26 255.049 24.8C255.049 24.34 254.849 23.99 254.449 23.75C254.049 23.49 253.409 23.28 252.529 23.12L251.689 22.97C250.649 22.77 249.699 22.5 248.839 22.16C247.979 21.8 247.289 21.31 246.769 20.69C246.249 20.07 245.989 19.27 245.989 18.29C245.989 16.81 246.529 15.68 247.609 14.9C248.689 14.1 250.109 13.7 251.869 13.7C253.529 13.7 254.909 14.07 256.009 14.81C257.109 15.55 257.829 16.52 258.169 17.72L254.659 18.8C254.499 18.04 254.169 17.5 253.669 17.18C253.189 16.86 252.589 16.7 251.869 16.7C251.149 16.7 250.599 16.83 250.219 17.09C249.839 17.33 249.649 17.67 249.649 18.11C249.649 18.59 249.849 18.95 250.249 19.19C250.649 19.41 251.189 19.58 251.869 19.7L252.709 19.85C253.829 20.05 254.839 20.32 255.739 20.66C256.659 20.98 257.379 21.45 257.899 22.07C258.439 22.67 258.709 23.49 258.709 24.53C258.709 26.09 258.139 27.3 256.999 28.16C255.879 29 254.369 29.42 252.469 29.42Z" fill="#73729A"/>
</svg>
