<svg width="260.173828" height="38.000000" viewBox="0 0 260.174 38" fill="none" xmlns="http://www.w3.org/2000/svg" xmlns:xlink="http://www.w3.org/1999/xlink">
	<desc>
			Created with Pixso.
	</desc>
	<defs/>
	<path id="Vector" d="M5.91895 29.8541L7.85547 26.5098L10.6482 28.1173L8.71167 31.4616L5.91895 29.8541ZM11.2178 27.1339L8.42505 25.5264L10.3618 22.1823L13.1543 23.7898L11.2178 27.1339ZM13.7239 22.8059L10.9314 21.1984L12.8679 17.8541L15.6606 19.4616L13.7239 22.8059ZM16.2302 18.4782L13.4375 16.8707L15.374 13.5264L18.1667 15.1339L16.2302 18.4782ZM18.7361 14.1503L15.9436 12.5428L17.8801 9.19873L20.6726 10.8062L18.7361 14.1503ZM21.2424 9.82262L18.45 8.21511L20.3865 4.87081L23.1792 6.47831L21.2424 9.82262ZM23.6785 5.61597L20.8857 4.00848L22.1829 1.76885L20.8472 1L0 37L1.78076 37L2.84326 35.1654L5.63574 36.7729L5.50439 37L22.6924 37C21.9973 32.0974 20.4141 28.3314 17.9429 25.7022C20.2651 29.4077 21.5037 32.8965 21.6582 36.1686C17.134 35.4493 15.0894 32.3857 15.5239 26.9776C15.6917 25.3289 15.4229 23.9718 14.7178 22.9064C23.196 23.8021 26.0586 27.9373 23.3052 35.3124L23.6646 37L24.6724 37C30.8757 30.8478 34.6614 23.8898 36.0293 16.1264C33.8005 23.1914 30.3303 29.0856 25.6189 33.8091C26.7285 29.4754 25.7588 26.1439 22.7097 23.8145C24.8118 16.1367 33.9934 13.8324 35.45 9.40545L24.9756 3.37635L23.6785 5.61597ZM6.20557 35.7893L3.41284 34.1818L5.34937 30.8375L8.14209 32.445L6.20557 35.7893ZM41.2371 28.4136L44.0295 30.0211L42.093 33.3654L39.3003 31.7579L41.2371 28.4136ZM44.5991 29.0374L41.8066 27.4299L43.7432 24.0856L46.5359 25.6931L44.5991 29.0374ZM38.7307 32.7413L41.5234 34.3488L39.988 36.9998L41.769 36.9998L52.1738 19.0319L50.8381 18.2631L49.541 20.5029L46.7485 18.8954L48.0454 16.6558L37.5903 10.6378C44.7788 20.6855 41.3767 35.0021 28.0723 36.0108L27.2136 37L36.2644 37L38.3823 37L36.7937 36.0856L38.7307 32.7413ZM47.1055 24.7097L44.3127 23.1022L46.2493 19.7579L49.042 21.3654L47.1055 24.7097Z" fill="#73729A" fill-opacity="1.000000" fill-rule="evenodd"/>
	<path id="dreamyfocus" d="M185.765 12.6377L189.017 12.6377L189.017 16.0435L185.765 16.0435L185.765 29L181.224 29L181.224 16.0435L178.917 16.0435L178.917 12.6377L181.224 12.6377L181.224 11.4512C181.224 7.89893 183.517 6.15576 186.6 6.15576C187.992 6.15576 189.237 6.43408 189.801 6.60986L189.003 10.0156C188.644 9.89844 188.087 9.78125 187.545 9.78125C186.212 9.78125 185.765 10.4331 185.765 11.5391L185.765 12.6377ZM80.6616 26.3779C80.0317 27.7402 78.6548 29.2637 76.0181 29.2637C72.2827 29.2637 69.375 26.312 69.375 20.8408C69.375 15.2158 72.4146 12.4253 76.0034 12.4253C78.7427 12.4253 80.0537 14.0513 80.6616 15.3843L80.8008 15.3843L80.8008 7.18115L85.3271 7.18115L85.3271 29L80.8521 29L80.8521 26.3779L80.6616 26.3779ZM93.5829 29L89.0419 29L89.0419 12.6377L93.4437 12.6377L93.4437 15.4941L93.6122 15.4941C94.2128 13.4653 95.7142 12.4033 97.5453 12.4033C98.0067 12.4033 98.5707 12.4692 98.9735 12.5645L98.9735 16.5854C98.5487 16.4536 97.6844 16.3438 97.0546 16.3438C95.055 16.3438 93.5829 17.728 93.5829 19.7422L93.5829 29ZM115.412 24.3125C114.775 27.3521 112.043 29.3223 107.993 29.3223C102.954 29.3223 99.8777 26.0776 99.8777 20.8921C99.8777 15.8457 102.998 12.4253 107.817 12.4253C112.138 12.4253 115.508 15.1719 115.508 20.731L115.508 21.9761L104.36 21.9761L104.36 21.9907C104.36 24.4297 105.803 25.9312 108.074 25.9312C109.582 25.9312 110.754 25.2793 111.216 24.0342L115.412 24.3125ZM127.915 26.7295C127.116 28.2529 125.556 29.3076 123.132 29.3076C120.012 29.3076 117.705 27.667 117.705 24.4297C117.705 20.7749 120.613 19.6909 123.85 19.3906C126.692 19.1123 127.812 18.9731 127.812 17.9185L127.812 17.8599C127.812 16.5122 126.926 15.7358 125.381 15.7358C123.755 15.7358 122.781 16.5342 122.473 17.6255L118.276 17.2812C118.906 14.3003 121.484 12.4253 125.403 12.4253C129.05 12.4253 132.353 14.0659 132.353 17.9624L132.353 29L128.047 29L128.047 26.7295L127.915 26.7295ZM140.415 29L135.874 29L135.874 12.6377L140.203 12.6377L140.203 15.5234L140.393 15.5234C141.074 13.5972 142.744 12.4253 144.956 12.4253C147.197 12.4253 148.875 13.6265 149.395 15.5234L149.563 15.5234C150.237 13.6484 152.105 12.4253 154.5 12.4253C157.547 12.4253 159.656 14.4468 159.656 17.9917L159.656 29L155.13 29L155.13 18.8926C155.13 17.0688 154.038 16.1606 152.588 16.1606C150.94 16.1606 149.973 17.3105 149.973 19.0098L149.973 29L145.572 29L145.572 18.7974C145.572 17.186 144.568 16.1606 143.081 16.1606C141.565 16.1606 140.415 17.3691 140.415 19.1782L140.415 29ZM206.655 20.8848C206.655 25.9238 203.571 29.3223 198.605 29.3223C193.64 29.3223 190.549 25.9238 190.549 20.8848C190.549 15.8091 193.64 12.4253 198.605 12.4253C203.571 12.4253 206.655 15.8091 206.655 20.8848ZM224.324 23.0015C224.104 26.7661 221.373 29.3223 217.015 29.3223C211.976 29.3223 208.958 25.8579 208.958 20.8848C208.958 15.8677 212.027 12.4253 216.993 12.4253C221.263 12.4253 224.126 14.9082 224.324 18.6875L220.04 18.6875C219.79 17.0542 218.728 15.9629 217.066 15.9629C214.956 15.9629 213.572 17.728 213.572 20.8188C213.572 23.9536 214.949 25.7261 217.066 25.7261C218.619 25.7261 219.769 24.752 220.04 23.0015L224.324 23.0015ZM252.542 12.4253C256.673 12.4253 259.105 14.2856 259.508 17.3032L255.355 17.5596C255.128 16.5049 254.19 15.6406 252.616 15.6406C251.209 15.6406 250.103 16.2778 250.111 17.2593C250.103 18.0503 250.667 18.5703 252.191 18.8999L255.15 19.5005C258.329 20.145 259.874 21.5659 259.881 23.9316C259.874 27.1543 256.834 29.3223 252.594 29.3223C248.258 29.3223 245.599 27.3887 245.167 24.2612L249.635 24.0269C249.913 25.3599 250.99 26.0483 252.608 26.0483C254.19 26.0483 255.245 25.3599 255.267 24.3857C255.245 23.5654 254.6 23.0454 253.172 22.7598L250.338 22.1958C247.137 21.5513 245.599 19.9692 245.606 17.5156C245.599 14.3589 248.353 12.4253 252.542 12.4253ZM171.535 30.7651C170.604 33.4092 168.817 35.1377 165.441 35.1377C164.291 35.1377 163.236 34.9473 162.584 34.6689L163.61 31.2778C165.206 31.7686 166.342 31.6953 166.942 30.1646L167.206 29.4688L161.339 12.6377L166.107 12.6377L169.498 24.6567L169.667 24.6567L173.087 12.6377L177.892 12.6377L171.535 30.7651ZM234.613 25.3745C236.239 25.3745 237.741 24.2246 237.733 22.0347L237.733 12.6377L242.275 12.6377L242.275 29L237.917 29L237.917 26.0264L237.741 26.0264C237.008 27.9453 235.243 29.2124 232.782 29.2124C229.486 29.2124 227.253 26.8833 227.238 23.0527L227.238 12.6377L231.779 12.6377L231.779 22.2471C231.786 24.1733 232.9 25.3745 234.613 25.3745ZM107.89 15.8091C105.876 15.8091 104.463 17.3032 104.36 19.1636L111.238 19.1636C111.223 17.2153 109.861 15.8091 107.89 15.8091ZM195.163 20.8481C195.163 23.7046 196.335 25.8066 198.627 25.8066C200.876 25.8066 202.048 23.7046 202.048 20.8481C202.048 17.9917 200.876 15.8823 198.627 15.8823C196.335 15.8823 195.163 17.9917 195.163 20.8481ZM74.0112 20.8188C74.0112 23.6753 75.2271 25.6528 77.4536 25.6528C79.6362 25.6528 80.896 23.7339 80.896 20.8188C80.896 17.8965 79.6582 16.0361 77.4536 16.0361C75.2051 16.0361 74.0112 17.9844 74.0112 20.8188ZM122.041 24.2832C122.041 25.5283 123.037 26.1802 124.436 26.1802C126.428 26.1802 127.842 24.8691 127.842 23.1479L127.842 21.4121C127.3 21.7783 125.681 22.0127 124.692 22.1519C123.095 22.3716 122.041 23.0015 122.041 24.2832Z" fill="#73729A" fill-opacity="1.000000" fill-rule="evenodd"/>
</svg>
