<svg width="30.000000" height="32.000000" viewBox="0 0 30 32" fill="none" xmlns="http://www.w3.org/2000/svg" xmlns:xlink="http://www.w3.org/1999/xlink">
	<desc>
			Created with Pixso.
	</desc>
	<defs>
		<clipPath id="clip4031_1766">
			<rect id="chevron-down" width="30.866972" height="32.000000" transform="translate(-0.867188 0.000000)" fill="white" fill-opacity="0"/>
		</clipPath>
	</defs>
	<rect id="chevron-down" width="30.866972" height="32.000000" transform="translate(-0.867188 0.000000)" fill="#FFFFFF" fill-opacity="0"/>
	<g clip-path="url(#clip4031_1766)">
		<path id="Vector" d="M14.14 21.33C13.91 21.33 13.69 21.28 13.48 21.2C13.27 21.11 13.08 20.98 12.92 20.81L6.06 13.71C5.9 13.54 5.78 13.34 5.69 13.13C5.6 12.91 5.56 12.68 5.56 12.45C5.56 12.21 5.6 11.98 5.69 11.76C5.78 11.55 5.9 11.35 6.06 11.18C6.22 11.02 6.41 10.89 6.62 10.8C6.83 10.71 7.05 10.66 7.28 10.66C7.51 10.66 7.73 10.71 7.94 10.8C8.15 10.89 8.34 11.02 8.5 11.18L14.14 17.06L19.79 11.42C19.95 11.23 20.14 11.09 20.35 10.99C20.57 10.88 20.8 10.83 21.04 10.83C21.27 10.82 21.51 10.87 21.72 10.96C21.94 11.06 22.14 11.2 22.3 11.37C22.46 11.55 22.59 11.76 22.67 11.99C22.75 12.22 22.79 12.46 22.77 12.71C22.76 12.95 22.7 13.19 22.59 13.41C22.49 13.63 22.34 13.82 22.16 13.97L15.3 20.83C14.99 21.14 14.57 21.32 14.14 21.33Z" fill="#2C2E35" fill-opacity="1.000000" fill-rule="nonzero"/>
	</g>
</svg>
